REM DIRINDEX 1\2\5,1\2\6,1\2\7,1\2\8,1\3\9,1\3\10,1\3\11,1\4\12,1\4\13,1\4\14,1\4\15,1\4\16
REM DIRNAME cjc034,folder01,folder02,folder03,folder04,folder05,folder06,folder07,folder08,folder09,folder10,folder11,folder12,folder13,folder14,folder15
TITLE ""
FILE "1200_sec03_0925_0933.mp3" MP3
  TRACK 01 AUDIO
    TITLE "0:"
    INDEX 01 00:00:00
  TRACK 02 AUDIO
    TITLE "12:cjc034_07377"
    INDEX 01 00:00:19
  TRACK 03 AUDIO
    TITLE "0:"
    INDEX 01 00:01:13
  TRACK 04 AUDIO
    TITLE "13:cjc034_07378"
    INDEX 01 00:01:52
  TRACK 05 AUDIO
    TITLE "0:"
    INDEX 01 00:02:59
  TRACK 06 AUDIO
    TITLE "14:cjc034_07379"
    INDEX 01 00:03:19
  TRACK 07 AUDIO
    TITLE "0:"
    INDEX 01 00:04:13
  TRACK 08 AUDIO
    TITLE "15:cjc034_07380"
    INDEX 01 00:04:54
  TRACK 09 AUDIO
    TITLE "0:"
    INDEX 01 00:07:33
  TRACK 10 AUDIO
    TITLE "12:cjc034_07381"
    INDEX 01 00:08:70
  TRACK 11 AUDIO
    TITLE "0:"
    INDEX 01 00:10:04
  TRACK 12 AUDIO
    TITLE "13:cjc034_07382"
    INDEX 01 00:10:39
  TRACK 13 AUDIO
    TITLE "0:"
    INDEX 01 00:12:28
  TRACK 14 AUDIO
    TITLE "14:cjc034_07383"
    INDEX 01 00:12:60
  TRACK 15 AUDIO
    TITLE "0:"
    INDEX 01 00:13:69
  TRACK 16 AUDIO
    TITLE "15:cjc034_07384"
    INDEX 01 00:14:29
  TRACK 17 AUDIO
    TITLE "0:"
    INDEX 01 00:18:05
  TRACK 18 AUDIO
    TITLE "12:cjc034_07385"
    INDEX 01 00:19:36
  TRACK 19 AUDIO
    TITLE "0:"
    INDEX 01 00:20:36
  TRACK 20 AUDIO
    TITLE "13:cjc034_07386"
    INDEX 01 00:20:71
  TRACK 21 AUDIO
    TITLE "0:"
    INDEX 01 00:21:51
  TRACK 22 AUDIO
    TITLE "14:cjc034_07387"
    INDEX 01 00:22:09
  TRACK 23 AUDIO
    TITLE "0:"
    INDEX 01 00:23:08
  TRACK 24 AUDIO
    TITLE "15:cjc034_07388"
    INDEX 01 00:23:44
  TRACK 25 AUDIO
    TITLE "0:"
    INDEX 01 00:26:54
  TRACK 26 AUDIO
    TITLE "12:cjc034_07389"
    INDEX 01 00:28:12
  TRACK 27 AUDIO
    TITLE "0:"
    INDEX 01 00:29:13
  TRACK 28 AUDIO
    TITLE "13:cjc034_07390"
    INDEX 01 00:29:48
  TRACK 29 AUDIO
    TITLE "0:"
    INDEX 01 00:30:61
  TRACK 30 AUDIO
    TITLE "14:cjc034_07391"
    INDEX 01 00:31:20
  TRACK 31 AUDIO
    TITLE "0:"
    INDEX 01 00:32:19
  TRACK 32 AUDIO
    TITLE "15:cjc034_07392"
    INDEX 01 00:32:54
  TRACK 33 AUDIO
    TITLE "0:"
    INDEX 01 00:35:17
  TRACK 34 AUDIO
    TITLE "12:cjc034_07393"
    INDEX 01 00:36:50
  TRACK 35 AUDIO
    TITLE "0:"
    INDEX 01 00:37:65
  TRACK 36 AUDIO
    TITLE "13:cjc034_07394"
    INDEX 01 00:38:24
  TRACK 37 AUDIO
    TITLE "0:"
    INDEX 01 00:39:17
  TRACK 38 AUDIO
    TITLE "14:cjc034_07395"
    INDEX 01 00:39:52
  TRACK 39 AUDIO
    TITLE "0:"
    INDEX 01 00:40:64
  TRACK 40 AUDIO
    TITLE "15:cjc034_07396"
    INDEX 01 00:41:24
  TRACK 41 AUDIO
    TITLE "0:"
    INDEX 01 00:44:34
  TRACK 42 AUDIO
    TITLE "12:cjc034_07397"
    INDEX 01 00:45:71
  TRACK 43 AUDIO
    TITLE "0:"
    INDEX 01 00:46:70
  TRACK 44 AUDIO
    TITLE "13:cjc034_07398"
    INDEX 01 00:47:28
  TRACK 45 AUDIO
    TITLE "0:"
    INDEX 01 00:48:20
  TRACK 46 AUDIO
    TITLE "14:cjc034_07399"
    INDEX 01 00:48:55
  TRACK 47 AUDIO
    TITLE "0:"
    INDEX 01 00:49:55
  TRACK 48 AUDIO
    TITLE "15:cjc034_07400"
    INDEX 01 00:50:15
  TRACK 49 AUDIO
    TITLE "0:"
    INDEX 01 00:53:31
  TRACK 50 AUDIO
    TITLE "12:cjc034_07401"
    INDEX 01 00:54:68
  TRACK 51 AUDIO
    TITLE "0:"
    INDEX 01 00:56:12
  TRACK 52 AUDIO
    TITLE "13:cjc034_07402"
    INDEX 01 00:56:39
  TRACK 53 AUDIO
    TITLE "0:"
    INDEX 01 00:57:31
  TRACK 54 AUDIO
    TITLE "14:cjc034_07403"
    INDEX 01 00:57:66
  TRACK 55 AUDIO
    TITLE "0:"
    INDEX 01 00:59:08
  TRACK 56 AUDIO
    TITLE "15:cjc034_07404"
    INDEX 01 00:59:39
  TRACK 57 AUDIO
    TITLE "0:"
    INDEX 01 01:03:45
  TRACK 58 AUDIO
    TITLE "12:cjc034_07405"
    INDEX 01 01:05:01
  TRACK 59 AUDIO
    TITLE "0:"
    INDEX 01 01:06:10
  TRACK 60 AUDIO
    TITLE "13:cjc034_07406"
    INDEX 01 01:06:42
  TRACK 61 AUDIO
    TITLE "0:"
    INDEX 01 01:07:35
  TRACK 62 AUDIO
    TITLE "14:cjc034_07407"
    INDEX 01 01:07:66
  TRACK 63 AUDIO
    TITLE "0:"
    INDEX 01 01:08:72
  TRACK 64 AUDIO
    TITLE "15:cjc034_07408"
    INDEX 01 01:09:30
  TRACK 65 AUDIO
    TITLE "0:"
    INDEX 01 01:13:10
  TRACK 66 AUDIO
    TITLE "12:cjc034_07409"
    INDEX 01 01:14:43
  TRACK 67 AUDIO
    TITLE "0:"
    INDEX 01 01:15:50
  TRACK 68 AUDIO
    TITLE "13:cjc034_07410"
    INDEX 01 01:16:07
  TRACK 69 AUDIO
    TITLE "0:"
    INDEX 01 01:18:11
  TRACK 70 AUDIO
    TITLE "14:cjc034_07411"
    INDEX 01 01:18:45
  TRACK 71 AUDIO
    TITLE "0:"
    INDEX 01 01:19:52
  TRACK 72 AUDIO
    TITLE "15:cjc034_07412"
    INDEX 01 01:20:10
  TRACK 73 AUDIO
    TITLE "0:"
    INDEX 01 01:23:34
